<svg width="113" height="19" viewBox="0 0 113 19" fill="none" xmlns="http://www.w3.org/2000/svg">
<mask id="path-1-outside-1_1_37" maskUnits="userSpaceOnUse" x="-1" y="-1" width="115" height="21" fill="black">
<rect fill="white" x="-1" y="-1" width="115" height="21"/>
<path d="M14.6289 18L8.76953 18.2812L8.72266 12.8672H6.02734L5.86328 18H0.613281L1.05859 1.52344L6.63672 1.78125L6.28516 10.1953H8.88672L8.91016 1.14844L14.2539 1.28906L14.6289 18Z"/>
<path d="M21.4844 0.585938L20.5234 12.9141H16.1875L15.7422 0.585938H21.4844ZM20.7109 16.5234C20.7109 16.8672 20.6445 17.1875 20.5117 17.4844C20.3789 17.7812 20.1992 18.0391 19.9727 18.2578C19.7539 18.4844 19.4961 18.6602 19.1992 18.7852C18.9023 18.918 18.5859 18.9844 18.25 18.9844C17.9062 18.9844 17.5859 18.918 17.2891 18.7852C16.9922 18.6602 16.7305 18.4844 16.5039 18.2578C16.2852 18.0391 16.1094 17.7812 15.9766 17.4844C15.8516 17.1875 15.7891 16.8672 15.7891 16.5234C15.7891 16.1875 15.8516 15.8672 15.9766 15.5625C16.1094 15.2578 16.2852 14.9961 16.5039 14.7773C16.7305 14.5508 16.9922 14.3711 17.2891 14.2383C17.5859 14.1055 17.9062 14.0391 18.25 14.0391C18.5859 14.0391 18.9023 14.1055 19.1992 14.2383C19.4961 14.3711 19.7539 14.5508 19.9727 14.7773C20.1992 14.9961 20.3789 15.2578 20.5117 15.5625C20.6445 15.8672 20.7109 16.1875 20.7109 16.5234Z"/>
<path d="M38.2305 1.10156C38.1836 1.83594 38.1406 2.5625 38.1016 3.28125C38.0625 4 38.0117 4.72656 37.9492 5.46094L32.9805 5.71875V7.19531H37.293L37.0586 10.8281L32.957 10.9453L32.9805 17.8828L27.0508 18L27.4258 1.10156H38.2305ZM82.4102 8.69531C82.4102 9.78906 82.2695 10.7773 81.9883 11.6602C81.707 12.5352 81.3125 13.3164 80.8047 14.0039C80.3047 14.6836 79.707 15.2695 79.0117 15.7617C78.3164 16.2539 77.5547 16.6602 76.7266 16.9805C75.8984 17.293 75.0156 17.5273 74.0781 17.6836C73.1484 17.832 72.1914 17.9062 71.207 17.9062C70.8398 17.9062 70.4805 17.8984 70.1289 17.8828C69.7773 17.8594 69.418 17.8281 69.0508 17.7891L69.3789 2.0625C70.2383 1.78906 71.1211 1.59766 72.0273 1.48828C72.9414 1.37109 73.8477 1.3125 74.7461 1.3125C75.8633 1.3125 76.8906 1.48047 77.8281 1.81641C78.7656 2.15234 79.5742 2.63672 80.2539 3.26953C80.9336 3.90234 81.4609 4.67578 81.8359 5.58984C82.2188 6.50391 82.4102 7.53906 82.4102 8.69531ZM77.6055 9.44531C77.6133 9.02344 77.5664 8.61719 77.4648 8.22656C77.3711 7.83594 77.2109 7.49219 76.9844 7.19531C76.7656 6.89062 76.4844 6.64844 76.1406 6.46875C75.7969 6.28125 75.3867 6.17969 74.9102 6.16406L74.4414 13.4297C74.9102 13.3594 75.3359 13.207 75.7188 12.9727C76.1016 12.7305 76.4297 12.4375 76.7031 12.0938C76.9844 11.7422 77.1992 11.3555 77.3477 10.9336C77.5039 10.5039 77.5898 10.0625 77.6055 9.60938V9.44531ZM89.4531 1.5L88.1641 17.4609L83.2188 17.7188V1.82812L89.4531 1.5ZM101.371 1.10156C101.324 1.83594 101.281 2.5625 101.242 3.28125C101.203 4 101.152 4.72656 101.09 5.46094L96.1211 5.71875L96.0039 7.19531H99.4961L99.2383 10.8281L95.7227 10.9453L95.6055 12.6562H98.5117H100.574C100.527 13.5156 100.477 14.3711 100.422 15.2227C100.375 16.0664 100.332 16.9141 100.293 17.7656L90.1914 18L90.5664 1.10156H101.371ZM112.504 5.13281L107.137 12.375H112.316L112.246 17.3438L101.793 17.7656L101.324 13.1719L107.441 5.20312L101.84 5.625L101.793 0.914062H112.293L112.504 5.13281Z"/>
<path d="M53.0078 9.72656C53.0078 10.4375 52.9258 11.125 52.7617 11.7891C52.5977 12.4453 52.3594 13.0625 52.0469 13.6406C51.7422 14.2188 51.3672 14.75 50.9219 15.2344C50.4844 15.7109 49.9883 16.1211 49.4336 16.4648C48.8867 16.8086 48.2891 17.0781 47.6406 17.2734C46.9922 17.4609 46.3047 17.5547 45.5781 17.5547C44.875 17.5547 44.2031 17.4648 43.5625 17.2852C42.9297 17.1055 42.3359 16.8555 41.7812 16.5352C41.2266 16.207 40.7227 15.8164 40.2695 15.3633C39.8242 14.9023 39.4414 14.3945 39.1211 13.8398C38.8086 13.2773 38.5625 12.6758 38.3828 12.0352C38.2109 11.3945 38.125 10.7266 38.125 10.0312C38.125 9.35156 38.207 8.6875 38.3711 8.03906C38.5352 7.38281 38.7695 6.76562 39.0742 6.1875C39.3867 5.60938 39.7617 5.07812 40.1992 4.59375C40.6367 4.10938 41.125 3.69141 41.6641 3.33984C42.2109 2.98828 42.8008 2.71484 43.4336 2.51953C44.0664 2.32422 44.7344 2.22656 45.4375 2.22656C46.5703 2.22656 47.6016 2.40234 48.5312 2.75391C49.4688 3.10547 50.2656 3.60938 50.9219 4.26562C51.5859 4.91406 52.0977 5.70313 52.457 6.63281C52.8242 7.55469 53.0078 8.58594 53.0078 9.72656ZM47.8047 10.0312C47.8047 9.69531 47.7539 9.37109 47.6523 9.05859C47.5586 8.73828 47.418 8.45703 47.2305 8.21484C47.043 7.96484 46.8086 7.76562 46.5273 7.61719C46.2539 7.46094 45.9375 7.38281 45.5781 7.38281C45.2109 7.38281 44.8828 7.44922 44.5938 7.58203C44.3047 7.71484 44.0547 7.89844 43.8438 8.13281C43.6406 8.35938 43.4844 8.62891 43.375 8.94141C43.2656 9.24609 43.2109 9.57031 43.2109 9.91406C43.2109 10.2422 43.2578 10.5703 43.3516 10.8984C43.4453 11.2266 43.5859 11.5234 43.7734 11.7891C43.9609 12.0547 44.1914 12.2695 44.4648 12.4336C44.7461 12.5977 45.0703 12.6797 45.4375 12.6797C45.8047 12.6797 46.1328 12.6094 46.4219 12.4688C46.7188 12.3203 46.9688 12.125 47.1719 11.8828C47.375 11.6328 47.5312 11.3477 47.6406 11.0273C47.75 10.707 47.8047 10.375 47.8047 10.0312ZM68.3125 9.72656C68.3125 10.4375 68.2305 11.125 68.0664 11.7891C67.9023 12.4453 67.6641 13.0625 67.3516 13.6406C67.0469 14.2188 66.6719 14.75 66.2266 15.2344C65.7891 15.7109 65.293 16.1211 64.7383 16.4648C64.1914 16.8086 63.5938 17.0781 62.9453 17.2734C62.2969 17.4609 61.6094 17.5547 60.8828 17.5547C60.1797 17.5547 59.5078 17.4648 58.8672 17.2852C58.2344 17.1055 57.6406 16.8555 57.0859 16.5352C56.5312 16.207 56.0273 15.8164 55.5742 15.3633C55.1289 14.9023 54.7461 14.3945 54.4258 13.8398C54.1133 13.2773 53.8672 12.6758 53.6875 12.0352C53.5156 11.3945 53.4297 10.7266 53.4297 10.0312C53.4297 9.35156 53.5117 8.6875 53.6758 8.03906C53.8398 7.38281 54.0742 6.76562 54.3789 6.1875C54.6914 5.60938 55.0664 5.07812 55.5039 4.59375C55.9414 4.10938 56.4297 3.69141 56.9688 3.33984C57.5156 2.98828 58.1055 2.71484 58.7383 2.51953C59.3711 2.32422 60.0391 2.22656 60.7422 2.22656C61.875 2.22656 62.9062 2.40234 63.8359 2.75391C64.7734 3.10547 65.5703 3.60938 66.2266 4.26562C66.8906 4.91406 67.4023 5.70313 67.7617 6.63281C68.1289 7.55469 68.3125 8.58594 68.3125 9.72656ZM63.1094 10.0312C63.1094 9.69531 63.0586 9.37109 62.957 9.05859C62.8633 8.73828 62.7227 8.45703 62.5352 8.21484C62.3477 7.96484 62.1133 7.76562 61.832 7.61719C61.5586 7.46094 61.2422 7.38281 60.8828 7.38281C60.5156 7.38281 60.1875 7.44922 59.8984 7.58203C59.6094 7.71484 59.3594 7.89844 59.1484 8.13281C58.9453 8.35938 58.7891 8.62891 58.6797 8.94141C58.5703 9.24609 58.5156 9.57031 58.5156 9.91406C58.5156 10.2422 58.5625 10.5703 58.6562 10.8984C58.75 11.2266 58.8906 11.5234 59.0781 11.7891C59.2656 12.0547 59.4961 12.2695 59.7695 12.4336C60.0508 12.5977 60.375 12.6797 60.7422 12.6797C61.1094 12.6797 61.4375 12.6094 61.7266 12.4688C62.0234 12.3203 62.2734 12.125 62.4766 11.8828C62.6797 11.6328 62.8359 11.3477 62.9453 11.0273C63.0547 10.707 63.1094 10.375 63.1094 10.0312Z"/>
</mask>
<path d="M14.6289 18L8.76953 18.2812L8.72266 12.8672H6.02734L5.86328 18H0.613281L1.05859 1.52344L6.63672 1.78125L6.28516 10.1953H8.88672L8.91016 1.14844L14.2539 1.28906L14.6289 18Z" fill="white"/>
<path d="M21.4844 0.585938L20.5234 12.9141H16.1875L15.7422 0.585938H21.4844ZM20.7109 16.5234C20.7109 16.8672 20.6445 17.1875 20.5117 17.4844C20.3789 17.7812 20.1992 18.0391 19.9727 18.2578C19.7539 18.4844 19.4961 18.6602 19.1992 18.7852C18.9023 18.918 18.5859 18.9844 18.25 18.9844C17.9062 18.9844 17.5859 18.918 17.2891 18.7852C16.9922 18.6602 16.7305 18.4844 16.5039 18.2578C16.2852 18.0391 16.1094 17.7812 15.9766 17.4844C15.8516 17.1875 15.7891 16.8672 15.7891 16.5234C15.7891 16.1875 15.8516 15.8672 15.9766 15.5625C16.1094 15.2578 16.2852 14.9961 16.5039 14.7773C16.7305 14.5508 16.9922 14.3711 17.2891 14.2383C17.5859 14.1055 17.9062 14.0391 18.25 14.0391C18.5859 14.0391 18.9023 14.1055 19.1992 14.2383C19.4961 14.3711 19.7539 14.5508 19.9727 14.7773C20.1992 14.9961 20.3789 15.2578 20.5117 15.5625C20.6445 15.8672 20.7109 16.1875 20.7109 16.5234Z" fill="#F65757"/>
<path d="M38.2305 1.10156C38.1836 1.83594 38.1406 2.5625 38.1016 3.28125C38.0625 4 38.0117 4.72656 37.9492 5.46094L32.9805 5.71875V7.19531H37.293L37.0586 10.8281L32.957 10.9453L32.9805 17.8828L27.0508 18L27.4258 1.10156H38.2305ZM82.4102 8.69531C82.4102 9.78906 82.2695 10.7773 81.9883 11.6602C81.707 12.5352 81.3125 13.3164 80.8047 14.0039C80.3047 14.6836 79.707 15.2695 79.0117 15.7617C78.3164 16.2539 77.5547 16.6602 76.7266 16.9805C75.8984 17.293 75.0156 17.5273 74.0781 17.6836C73.1484 17.832 72.1914 17.9062 71.207 17.9062C70.8398 17.9062 70.4805 17.8984 70.1289 17.8828C69.7773 17.8594 69.418 17.8281 69.0508 17.7891L69.3789 2.0625C70.2383 1.78906 71.1211 1.59766 72.0273 1.48828C72.9414 1.37109 73.8477 1.3125 74.7461 1.3125C75.8633 1.3125 76.8906 1.48047 77.8281 1.81641C78.7656 2.15234 79.5742 2.63672 80.2539 3.26953C80.9336 3.90234 81.4609 4.67578 81.8359 5.58984C82.2188 6.50391 82.4102 7.53906 82.4102 8.69531ZM77.6055 9.44531C77.6133 9.02344 77.5664 8.61719 77.4648 8.22656C77.3711 7.83594 77.2109 7.49219 76.9844 7.19531C76.7656 6.89062 76.4844 6.64844 76.1406 6.46875C75.7969 6.28125 75.3867 6.17969 74.9102 6.16406L74.4414 13.4297C74.9102 13.3594 75.3359 13.207 75.7188 12.9727C76.1016 12.7305 76.4297 12.4375 76.7031 12.0938C76.9844 11.7422 77.1992 11.3555 77.3477 10.9336C77.5039 10.5039 77.5898 10.0625 77.6055 9.60938V9.44531ZM89.4531 1.5L88.1641 17.4609L83.2188 17.7188V1.82812L89.4531 1.5ZM101.371 1.10156C101.324 1.83594 101.281 2.5625 101.242 3.28125C101.203 4 101.152 4.72656 101.09 5.46094L96.1211 5.71875L96.0039 7.19531H99.4961L99.2383 10.8281L95.7227 10.9453L95.6055 12.6562H98.5117H100.574C100.527 13.5156 100.477 14.3711 100.422 15.2227C100.375 16.0664 100.332 16.9141 100.293 17.7656L90.1914 18L90.5664 1.10156H101.371ZM112.504 5.13281L107.137 12.375H112.316L112.246 17.3438L101.793 17.7656L101.324 13.1719L107.441 5.20312L101.84 5.625L101.793 0.914062H112.293L112.504 5.13281Z" fill="#54CCFF"/>
<path d="M53.0078 9.72656C53.0078 10.4375 52.9258 11.125 52.7617 11.7891C52.5977 12.4453 52.3594 13.0625 52.0469 13.6406C51.7422 14.2188 51.3672 14.75 50.9219 15.2344C50.4844 15.7109 49.9883 16.1211 49.4336 16.4648C48.8867 16.8086 48.2891 17.0781 47.6406 17.2734C46.9922 17.4609 46.3047 17.5547 45.5781 17.5547C44.875 17.5547 44.2031 17.4648 43.5625 17.2852C42.9297 17.1055 42.3359 16.8555 41.7812 16.5352C41.2266 16.207 40.7227 15.8164 40.2695 15.3633C39.8242 14.9023 39.4414 14.3945 39.1211 13.8398C38.8086 13.2773 38.5625 12.6758 38.3828 12.0352C38.2109 11.3945 38.125 10.7266 38.125 10.0312C38.125 9.35156 38.207 8.6875 38.3711 8.03906C38.5352 7.38281 38.7695 6.76562 39.0742 6.1875C39.3867 5.60938 39.7617 5.07812 40.1992 4.59375C40.6367 4.10938 41.125 3.69141 41.6641 3.33984C42.2109 2.98828 42.8008 2.71484 43.4336 2.51953C44.0664 2.32422 44.7344 2.22656 45.4375 2.22656C46.5703 2.22656 47.6016 2.40234 48.5312 2.75391C49.4688 3.10547 50.2656 3.60938 50.9219 4.26562C51.5859 4.91406 52.0977 5.70313 52.457 6.63281C52.8242 7.55469 53.0078 8.58594 53.0078 9.72656ZM47.8047 10.0312C47.8047 9.69531 47.7539 9.37109 47.6523 9.05859C47.5586 8.73828 47.418 8.45703 47.2305 8.21484C47.043 7.96484 46.8086 7.76562 46.5273 7.61719C46.2539 7.46094 45.9375 7.38281 45.5781 7.38281C45.2109 7.38281 44.8828 7.44922 44.5938 7.58203C44.3047 7.71484 44.0547 7.89844 43.8438 8.13281C43.6406 8.35938 43.4844 8.62891 43.375 8.94141C43.2656 9.24609 43.2109 9.57031 43.2109 9.91406C43.2109 10.2422 43.2578 10.5703 43.3516 10.8984C43.4453 11.2266 43.5859 11.5234 43.7734 11.7891C43.9609 12.0547 44.1914 12.2695 44.4648 12.4336C44.7461 12.5977 45.0703 12.6797 45.4375 12.6797C45.8047 12.6797 46.1328 12.6094 46.4219 12.4688C46.7188 12.3203 46.9688 12.125 47.1719 11.8828C47.375 11.6328 47.5312 11.3477 47.6406 11.0273C47.75 10.707 47.8047 10.375 47.8047 10.0312ZM68.3125 9.72656C68.3125 10.4375 68.2305 11.125 68.0664 11.7891C67.9023 12.4453 67.6641 13.0625 67.3516 13.6406C67.0469 14.2188 66.6719 14.75 66.2266 15.2344C65.7891 15.7109 65.293 16.1211 64.7383 16.4648C64.1914 16.8086 63.5938 17.0781 62.9453 17.2734C62.2969 17.4609 61.6094 17.5547 60.8828 17.5547C60.1797 17.5547 59.5078 17.4648 58.8672 17.2852C58.2344 17.1055 57.6406 16.8555 57.0859 16.5352C56.5312 16.207 56.0273 15.8164 55.5742 15.3633C55.1289 14.9023 54.7461 14.3945 54.4258 13.8398C54.1133 13.2773 53.8672 12.6758 53.6875 12.0352C53.5156 11.3945 53.4297 10.7266 53.4297 10.0312C53.4297 9.35156 53.5117 8.6875 53.6758 8.03906C53.8398 7.38281 54.0742 6.76562 54.3789 6.1875C54.6914 5.60938 55.0664 5.07812 55.5039 4.59375C55.9414 4.10938 56.4297 3.69141 56.9688 3.33984C57.5156 2.98828 58.1055 2.71484 58.7383 2.51953C59.3711 2.32422 60.0391 2.22656 60.7422 2.22656C61.875 2.22656 62.9062 2.40234 63.8359 2.75391C64.7734 3.10547 65.5703 3.60938 66.2266 4.26562C66.8906 4.91406 67.4023 5.70313 67.7617 6.63281C68.1289 7.55469 68.3125 8.58594 68.3125 9.72656ZM63.1094 10.0312C63.1094 9.69531 63.0586 9.37109 62.957 9.05859C62.8633 8.73828 62.7227 8.45703 62.5352 8.21484C62.3477 7.96484 62.1133 7.76562 61.832 7.61719C61.5586 7.46094 61.2422 7.38281 60.8828 7.38281C60.5156 7.38281 60.1875 7.44922 59.8984 7.58203C59.6094 7.71484 59.3594 7.89844 59.1484 8.13281C58.9453 8.35938 58.7891 8.62891 58.6797 8.94141C58.5703 9.24609 58.5156 9.57031 58.5156 9.91406C58.5156 10.2422 58.5625 10.5703 58.6562 10.8984C58.75 11.2266 58.8906 11.5234 59.0781 11.7891C59.2656 12.0547 59.4961 12.2695 59.7695 12.4336C60.0508 12.5977 60.375 12.6797 60.7422 12.6797C61.1094 12.6797 61.4375 12.6094 61.7266 12.4688C62.0234 12.3203 62.2734 12.125 62.4766 11.8828C62.6797 11.6328 62.8359 11.3477 62.9453 11.0273C63.0547 10.707 63.1094 10.375 63.1094 10.0312Z" fill="#F5A052"/>
<path d="M14.6289 18L14.6769 18.9988L15.6505 18.9521L15.6287 17.9776L14.6289 18ZM8.76953 18.2812L7.76957 18.2899L7.77857 19.33L8.81748 19.2801L8.76953 18.2812ZM8.72266 12.8672L9.72262 12.8585L9.71404 11.8672H8.72266V12.8672ZM6.02734 12.8672V11.8672H5.0588L5.02785 12.8352L6.02734 12.8672ZM5.86328 18V19H6.83183L6.86277 18.0319L5.86328 18ZM0.613281 18L-0.386354 17.973L-0.414111 19H0.613281V18ZM1.05859 1.52344L1.10476 0.524504L0.0864988 0.477441L0.0589588 1.49642L1.05859 1.52344ZM6.63672 1.78125L7.63585 1.823L7.67741 0.828282L6.68289 0.782316L6.63672 1.78125ZM6.28516 10.1953L5.28603 10.1536L5.2425 11.1953H6.28516V10.1953ZM8.88672 10.1953V11.1953H9.88413L9.88671 10.1979L8.88672 10.1953ZM8.91016 1.14844L8.93646 0.148784L7.91281 0.121845L7.91016 1.14585L8.91016 1.14844ZM14.2539 1.28906L15.2537 1.26663L15.2323 0.314463L14.2802 0.289409L14.2539 1.28906ZM14.581 17.0012L8.72159 17.2824L8.81748 19.2801L14.6769 18.9988L14.581 17.0012ZM9.76949 18.2726L9.72262 12.8585L7.72269 12.8758L7.76957 18.2899L9.76949 18.2726ZM8.72266 11.8672H6.02734V13.8672H8.72266V11.8672ZM5.02785 12.8352L4.86379 17.9681L6.86277 18.0319L7.02683 12.8991L5.02785 12.8352ZM5.86328 17H0.613281V19H5.86328V17ZM1.61292 18.027L2.05823 1.55045L0.0589588 1.49642L-0.386354 17.973L1.61292 18.027ZM1.01242 2.52237L6.59055 2.78018L6.68289 0.782316L1.10476 0.524504L1.01242 2.52237ZM5.63759 1.7395L5.28603 10.1536L7.28428 10.2371L7.63585 1.823L5.63759 1.7395ZM6.28516 11.1953H8.88672V9.19531H6.28516V11.1953ZM9.88671 10.1979L9.91015 1.15103L7.91016 1.14585L7.88672 10.1927L9.88671 10.1979ZM8.88385 2.14809L14.2276 2.28872L14.2802 0.289409L8.93646 0.148784L8.88385 2.14809ZM13.2542 1.3115L13.6292 18.0224L15.6287 17.9776L15.2537 1.26663L13.2542 1.3115ZM21.4844 0.585938L22.4814 0.663649L22.5654 -0.414062H21.4844V0.585938ZM20.5234 12.9141V13.9141H21.4485L21.5204 12.9918L20.5234 12.9141ZM16.1875 12.9141L15.1882 12.9502L15.223 13.9141H16.1875V12.9141ZM15.7422 0.585938V-0.414062H14.7054L14.7428 0.622036L15.7422 0.585938ZM19.9727 18.2578L19.2781 17.5384L19.2654 17.5506L19.2533 17.5632L19.9727 18.2578ZM19.1992 18.7852L18.8112 17.8635L18.801 17.8678L18.7909 17.8723L19.1992 18.7852ZM17.2891 18.7852L17.6974 17.8723L17.6873 17.8678L17.6771 17.8635L17.2891 18.7852ZM15.9766 17.4844L15.0549 17.8724L15.0592 17.8826L15.0637 17.8927L15.9766 17.4844ZM15.9766 15.5625L15.0599 15.1629L15.0555 15.1729L15.0514 15.1829L15.9766 15.5625ZM19.9727 14.7773L19.2533 15.4719L19.2654 15.4846L19.2781 15.4967L19.9727 14.7773ZM20.4874 0.508226L19.5265 12.8364L21.5204 12.9918L22.4814 0.663649L20.4874 0.508226ZM20.5234 11.9141H16.1875V13.9141H20.5234V11.9141ZM17.1868 12.878L16.7415 0.549839L14.7428 0.622036L15.1882 12.9502L17.1868 12.878ZM15.7422 1.58594H21.4844V-0.414062H15.7422V1.58594ZM19.7109 16.5234C19.7109 16.7346 19.671 16.9149 19.5989 17.076L21.4245 17.8927C21.6181 17.4601 21.7109 16.9998 21.7109 16.5234H19.7109ZM19.5989 17.076C19.5165 17.2601 19.4097 17.4114 19.2781 17.5384L20.6673 18.9772C20.9888 18.6668 21.2413 18.3024 21.4245 17.8927L19.5989 17.076ZM19.2533 17.5632C19.1306 17.6902 18.9863 17.7898 18.8112 17.8635L19.5873 19.7068C20.0059 19.5305 20.3772 19.2785 20.6921 18.9524L19.2533 17.5632ZM18.7909 17.8723C18.6267 17.9458 18.4499 17.9844 18.25 17.9844V19.9844C18.7219 19.9844 19.178 19.8902 19.6076 19.698L18.7909 17.8723ZM18.25 17.9844C18.0388 17.9844 17.8586 17.9444 17.6974 17.8723L16.8807 19.698C17.3133 19.8915 17.7737 19.9844 18.25 19.9844V17.9844ZM17.6771 17.8635C17.4988 17.7884 17.3456 17.6853 17.211 17.5507L15.7968 18.9649C16.1153 19.2835 16.4856 19.5319 16.901 19.7068L17.6771 17.8635ZM17.211 17.5507C17.0828 17.4225 16.975 17.2674 16.8894 17.076L15.0637 17.8927C15.2438 18.2951 15.4875 18.6556 15.7968 18.9649L17.211 17.5507ZM16.8982 17.0963C16.8283 16.9304 16.7891 16.743 16.7891 16.5234H14.7891C14.7891 16.9914 14.8748 17.4446 15.0549 17.8724L16.8982 17.0963ZM16.7891 16.5234C16.7891 16.315 16.8271 16.1239 16.9017 15.9421L15.0514 15.1829C14.876 15.6105 14.7891 16.06 14.7891 16.5234H16.7891ZM16.8933 15.9621C16.9798 15.7635 17.0872 15.6083 17.211 15.4845L15.7968 14.0702C15.4832 14.3839 15.2389 14.7521 15.0599 15.1629L16.8933 15.9621ZM17.211 15.4845C17.3501 15.3454 17.5101 15.2349 17.6974 15.1511L16.8807 13.3255C16.4742 13.5073 16.1109 13.7562 15.7968 14.0702L17.211 15.4845ZM17.6974 15.1511C17.8586 15.079 18.0388 15.0391 18.25 15.0391V13.0391C17.7737 13.0391 17.3133 13.1319 16.8807 13.3255L17.6974 15.1511ZM18.25 15.0391C18.4499 15.0391 18.6267 15.0777 18.7909 15.1511L19.6076 13.3255C19.178 13.1333 18.7219 13.0391 18.25 13.0391V15.0391ZM18.7909 15.1511C18.9749 15.2335 19.1262 15.3403 19.2533 15.4719L20.6921 14.0827C20.3816 13.7612 20.0172 13.5087 19.6076 13.3255L18.7909 15.1511ZM19.2781 15.4967C19.4052 15.6195 19.5116 15.7708 19.595 15.9621L21.4284 15.1629C21.2462 14.7449 20.9932 14.3727 20.6673 14.0579L19.2781 15.4967ZM19.595 15.9621C19.6723 16.1393 19.7109 16.3235 19.7109 16.5234H21.7109C21.7109 16.0515 21.6168 15.595 21.4284 15.1629L19.595 15.9621ZM38.2305 1.10156L39.2284 1.16526L39.2963 0.101562H38.2305V1.10156ZM37.9492 5.46094L38.001 6.45959L38.8717 6.41442L38.9456 5.54574L37.9492 5.46094ZM32.9805 5.71875L32.9286 4.72009L31.9805 4.76929V5.71875H32.9805ZM32.9805 7.19531H31.9805V8.19531H32.9805V7.19531ZM37.293 7.19531L38.2909 7.25969L38.3596 6.19531H37.293V7.19531ZM37.0586 10.8281L37.0872 11.8277L37.9979 11.8017L38.0565 10.8925L37.0586 10.8281ZM32.957 10.9453L32.9285 9.94572L31.9537 9.97357L31.957 10.9487L32.957 10.9453ZM32.9805 17.8828L33.0002 18.8826L33.9838 18.8632L33.9805 17.8794L32.9805 17.8828ZM27.0508 18L26.051 17.9778L26.0279 19.0204L27.0705 18.9998L27.0508 18ZM27.4258 1.10156V0.101562H26.4477L26.426 1.07938L27.4258 1.10156ZM37.2325 1.03786C37.1854 1.77531 37.1423 2.50502 37.103 3.22698L39.1001 3.33552C39.139 2.61998 39.1818 1.89656 39.2284 1.16526L37.2325 1.03786ZM37.103 3.22698C37.0645 3.93531 37.0145 4.65169 36.9528 5.37614L38.9456 5.54574C39.009 4.80144 39.0605 4.06469 39.1001 3.33552L37.103 3.22698ZM37.8974 4.46228L32.9286 4.72009L33.0323 6.71741L38.001 6.45959L37.8974 4.46228ZM31.9805 5.71875V7.19531H33.9805V5.71875H31.9805ZM32.9805 8.19531H37.293V6.19531H32.9805V8.19531ZM36.295 7.13093L36.0607 10.7637L38.0565 10.8925L38.2909 7.25969L36.295 7.13093ZM37.03 9.82853L32.9285 9.94572L32.9856 11.9449L37.0872 11.8277L37.03 9.82853ZM31.957 10.9487L31.9805 17.8862L33.9805 17.8794L33.957 10.9419L31.957 10.9487ZM32.9607 16.883L27.031 17.0002L27.0705 18.9998L33.0002 18.8826L32.9607 16.883ZM28.0505 18.0222L28.4255 1.12375L26.426 1.07938L26.051 17.9778L28.0505 18.0222ZM27.4258 2.10156H38.2305V0.101562H27.4258V2.10156ZM52.7617 11.7891L53.7319 12.0316L53.7325 12.0289L52.7617 11.7891ZM52.0469 13.6406L51.1671 13.1651L51.1622 13.1744L52.0469 13.6406ZM50.9219 15.2344L50.1857 14.5576L50.1852 14.5581L50.9219 15.2344ZM49.4336 16.4648L48.9068 15.6148L48.9014 15.6182L49.4336 16.4648ZM47.6406 17.2734L47.9184 18.2341L47.929 18.2309L47.6406 17.2734ZM43.5625 17.2852L43.2893 18.2471L43.2924 18.248L43.5625 17.2852ZM41.7812 16.5352L41.2721 17.3959L41.2812 17.4011L41.7812 16.5352ZM40.2695 15.3633L39.5503 16.0581L39.5563 16.0643L39.5624 16.0704L40.2695 15.3633ZM39.1211 13.8398L38.2469 14.3255L38.251 14.3327L38.2551 14.3399L39.1211 13.8398ZM38.3828 12.0352L37.4169 12.2943L37.42 12.3052L38.3828 12.0352ZM38.3711 8.03906L39.3405 8.28435L39.3412 8.2816L38.3711 8.03906ZM39.0742 6.1875L38.1945 5.71196L38.1896 5.72126L39.0742 6.1875ZM41.6641 3.33984L41.1233 2.49865L41.1178 2.50223L41.6641 3.33984ZM48.5312 2.75391L48.1775 3.68927L48.1801 3.69024L48.5312 2.75391ZM50.9219 4.26562L50.2147 4.97278L50.2232 4.9811L50.9219 4.26562ZM52.457 6.63281L51.5242 6.99339L51.528 7.00285L52.457 6.63281ZM47.6523 9.05859L46.6926 9.33949L46.6968 9.35365L46.7013 9.36768L47.6523 9.05859ZM47.2305 8.21484L46.4305 8.81484L46.4351 8.82097L46.4397 8.82702L47.2305 8.21484ZM46.5273 7.61719L46.0312 8.48543L46.0458 8.49375L46.0606 8.50157L46.5273 7.61719ZM43.8438 8.13281L43.1005 7.46385L43.0992 7.46527L43.8438 8.13281ZM43.375 8.94141L44.3162 9.27928L44.3189 9.27176L43.375 8.94141ZM44.4648 12.4336L43.9503 13.2912L43.961 13.2974L44.4648 12.4336ZM46.4219 12.4688L46.8594 13.368L46.8691 13.3632L46.4219 12.4688ZM47.1719 11.8828L47.9381 12.5254L47.9431 12.5195L47.948 12.5134L47.1719 11.8828ZM52.0078 9.72656C52.0078 10.3598 51.9348 10.9667 51.7909 11.5492L53.7325 12.0289C53.9167 11.2833 54.0078 10.5152 54.0078 9.72656H52.0078ZM51.7916 11.5465C51.6472 12.124 51.4387 12.6627 51.1672 13.1651L52.9266 14.1161C53.28 13.4623 53.5481 12.7666 53.7319 12.0316L51.7916 11.5465ZM51.1622 13.1744C50.898 13.6757 50.5731 14.1363 50.1857 14.5576L51.658 15.9112C52.1613 15.3637 52.5864 14.7618 52.9315 14.1069L51.1622 13.1744ZM50.1852 14.5581C49.81 14.9669 49.3846 15.3187 48.9068 15.6148L49.9604 17.3149C50.5919 16.9235 51.1588 16.455 51.6585 15.9106L50.1852 14.5581ZM48.9014 15.6182C48.4341 15.912 47.919 16.1452 47.3522 16.3159L47.929 18.2309C48.6592 18.011 49.3394 17.7052 49.9658 17.3115L48.9014 15.6182ZM47.3628 16.3128C46.8113 16.4723 46.2179 16.5547 45.5781 16.5547V18.5547C46.3915 18.5547 47.1731 18.4496 47.9184 18.2341L47.3628 16.3128ZM45.5781 16.5547C44.9611 16.5547 44.3804 16.476 43.8326 16.3223L43.2924 18.248C44.0258 18.4537 44.7889 18.5547 45.5781 18.5547V16.5547ZM43.8357 16.3232C43.28 16.1654 42.7627 15.9472 42.2813 15.6692L41.2812 17.4011C41.9092 17.7638 42.5794 18.0455 43.2893 18.2471L43.8357 16.3232ZM42.2904 15.6745C41.8075 15.3888 41.3701 15.0497 40.9766 14.6562L39.5624 16.0704C40.0752 16.5831 40.6457 17.0253 41.2721 17.3958L42.2904 15.6745ZM40.9887 14.6685C40.6001 14.2662 40.2666 13.8238 39.9871 13.3398L38.2551 14.3399C38.6162 14.9653 39.0484 15.5385 39.5503 16.0581L40.9887 14.6685ZM39.9953 13.3542C39.7219 12.8621 39.505 12.3332 39.3457 11.7651L37.42 12.3052C37.62 13.0184 37.8953 13.6925 38.2469 14.3255L39.9953 13.3542ZM39.3487 11.776C39.2005 11.2239 39.125 10.6433 39.125 10.0312H37.125C37.125 10.8098 37.2214 11.5652 37.417 12.2943L39.3487 11.776ZM39.125 10.0312C39.125 9.43292 39.1971 8.8513 39.3405 8.28435L37.4016 7.79378C37.217 8.5237 37.125 9.2702 37.125 10.0312H39.125ZM39.3412 8.2816C39.4866 7.70034 39.6928 7.15854 39.9589 6.65374L38.1896 5.72126C37.8462 6.37271 37.5838 7.06529 37.401 7.79653L39.3412 8.2816ZM39.9539 6.66302C40.2288 6.15459 40.5577 5.6888 40.9413 5.26404L39.4571 3.92346C38.9658 4.46745 38.5447 5.06416 38.1945 5.71198L39.9539 6.66302ZM40.9413 5.26404C41.3219 4.84273 41.7445 4.48125 42.2103 4.17745L41.1178 2.50223C40.5055 2.90156 39.9516 3.37602 39.4571 3.92346L40.9413 5.26404ZM42.2048 4.18102C42.6739 3.87948 43.1808 3.64409 43.7285 3.47505L43.1387 1.56401C42.4207 1.78559 41.748 2.09709 41.1233 2.49867L42.2048 4.18102ZM43.7285 3.47505C44.2601 3.31099 44.8282 3.22656 45.4375 3.22656V1.22656C44.6406 1.22656 43.8727 1.33744 43.1387 1.56401L43.7285 3.47505ZM45.4375 3.22656C46.4662 3.22656 47.3755 3.38598 48.1775 3.68926L48.885 1.81855C47.8276 1.41871 46.6744 1.22656 45.4375 1.22656V3.22656ZM48.1801 3.69024C48.9947 3.99568 49.6672 4.4252 50.2148 4.97273L51.629 3.55852C50.864 2.79355 49.9428 2.21525 48.8824 1.81758L48.1801 3.69024ZM50.2232 4.9811C50.7773 5.52212 51.2127 6.18736 51.5243 6.99337L53.3898 6.27226C52.9826 5.21889 52.3946 4.30601 51.6205 3.55015L50.2232 4.9811ZM51.528 7.00285C51.8418 7.79075 52.0078 8.69393 52.0078 9.72656H54.0078C54.0078 8.47795 53.8066 7.31862 53.3861 6.26278L51.528 7.00285ZM48.8047 10.0312C48.8047 9.59273 48.7381 9.16406 48.6034 8.74951L46.7013 9.36768C46.7697 9.57812 46.8047 9.79789 46.8047 10.0312H48.8047ZM48.6121 8.7777C48.4864 8.34816 48.2919 7.95227 48.0212 7.60267L46.4397 8.82702C46.5441 8.96179 46.6308 9.1284 46.6926 9.33949L48.6121 8.7777ZM48.0305 7.61484C47.7527 7.24444 47.4037 6.94898 46.9941 6.7328L46.0606 8.50157C46.2135 8.58227 46.3333 8.68524 46.4305 8.81484L48.0305 7.61484ZM47.0235 6.74894C46.5787 6.49477 46.0866 6.38281 45.5781 6.38281V8.38281C45.7884 8.38281 45.9291 8.42711 46.0312 8.48543L47.0235 6.74894ZM45.5781 6.38281C45.089 6.38281 44.615 6.47177 44.1763 6.67335L45.0112 8.49071C45.1506 8.42667 45.3329 8.38281 45.5781 8.38281V6.38281ZM44.1763 6.67335C43.7645 6.86253 43.4034 7.12729 43.1005 7.46385L44.587 8.80178C44.706 8.66958 44.8449 8.56716 45.0112 8.49071L44.1763 6.67335ZM43.0992 7.46527C42.8006 7.79834 42.5802 8.18516 42.4311 8.61106L44.3189 9.27176C44.3885 9.07265 44.4807 8.92041 44.5883 8.80036L43.0992 7.46527ZM42.4338 8.60354C42.2832 9.02318 42.2109 9.46232 42.2109 9.91406H44.2109C44.2109 9.67831 44.2481 9.46901 44.3162 9.27927L42.4338 8.60354ZM42.2109 9.91406C42.2109 10.3388 42.2718 10.7593 42.39 11.1732L44.3131 10.6237C44.2438 10.3813 44.2109 10.1456 44.2109 9.91406H42.2109ZM42.39 11.1732C42.5131 11.6039 42.701 12.0038 42.9565 12.3657L44.5904 11.2124C44.4709 11.0431 44.3775 10.8492 44.3131 10.6237L42.39 11.1732ZM42.9565 12.3657C43.2226 12.7427 43.5553 13.054 43.9503 13.2911L44.9793 11.5761C44.8275 11.485 44.6993 11.3667 44.5904 11.2124L42.9565 12.3657ZM43.961 13.2974C44.4139 13.5616 44.9163 13.6797 45.4375 13.6797V11.6797C45.2243 11.6797 45.0783 11.6337 44.9687 11.5698L43.961 13.2974ZM45.4375 13.6797C45.9346 13.6797 46.4158 13.5838 46.8593 13.368L45.9844 11.5695C45.8498 11.635 45.6747 11.6797 45.4375 11.6797V13.6797ZM46.8691 13.3632C47.2822 13.1566 47.6426 12.8777 47.9381 12.5254L46.4057 11.2402C46.2949 11.3723 46.1553 11.484 45.9747 11.5743L46.8691 13.3632ZM47.948 12.5134C48.2293 12.1672 48.4414 11.7768 48.587 11.3505L46.6943 10.7042C46.6211 10.9185 46.5207 11.0984 46.3958 11.2522L47.948 12.5134ZM48.587 11.3505C48.7324 10.9245 48.8047 10.4832 48.8047 10.0312H46.8047C46.8047 10.2668 46.7676 10.4896 46.6943 10.7042L48.587 11.3505ZM68.0664 11.7891L69.0366 12.0316L69.0372 12.0289L68.0664 11.7891ZM67.3516 13.6406L66.4718 13.1651L66.4669 13.1744L67.3516 13.6406ZM66.2266 15.2344L65.4904 14.5576L65.4899 14.5581L66.2266 15.2344ZM64.7383 16.4648L64.2115 15.6148L64.2061 15.6182L64.7383 16.4648ZM62.9453 17.2734L63.2231 18.2341L63.2337 18.2309L62.9453 17.2734ZM58.8672 17.2852L58.594 18.2471L58.5971 18.248L58.8672 17.2852ZM57.0859 16.5352L56.5768 17.3959L56.5859 17.4011L57.0859 16.5352ZM55.5742 15.3633L54.855 16.0581L54.861 16.0643L54.8671 16.0704L55.5742 15.3633ZM54.4258 13.8398L53.5516 14.3255L53.5557 14.3327L53.5598 14.3399L54.4258 13.8398ZM53.6875 12.0352L52.7216 12.2943L52.7247 12.3052L53.6875 12.0352ZM53.6758 8.03906L54.6452 8.28435L54.6459 8.2816L53.6758 8.03906ZM54.3789 6.1875L53.4991 5.71196L53.4942 5.72126L54.3789 6.1875ZM56.9688 3.33984L56.428 2.49865L56.4225 2.50223L56.9688 3.33984ZM63.8359 2.75391L63.4822 3.68927L63.4848 3.69024L63.8359 2.75391ZM66.2266 4.26562L65.5194 4.97278L65.5279 4.9811L66.2266 4.26562ZM67.7617 6.63281L66.8289 6.99339L66.8327 7.00285L67.7617 6.63281ZM62.957 9.05859L61.9973 9.33949L62.0014 9.35365L62.006 9.36768L62.957 9.05859ZM62.5352 8.21484L61.7352 8.81484L61.7397 8.82097L61.7444 8.82702L62.5352 8.21484ZM61.832 7.61719L61.3359 8.48543L61.3504 8.49375L61.3653 8.50157L61.832 7.61719ZM59.1484 8.13281L58.4051 7.46385L58.4039 7.46527L59.1484 8.13281ZM58.6797 8.94141L59.6209 9.27928L59.6235 9.27176L58.6797 8.94141ZM59.7695 12.4336L59.255 13.2912L59.2657 13.2974L59.7695 12.4336ZM61.7266 12.4688L62.1641 13.368L62.1738 13.3632L61.7266 12.4688ZM62.4766 11.8828L63.2428 12.5254L63.2478 12.5195L63.2527 12.5134L62.4766 11.8828ZM67.3125 9.72656C67.3125 10.3598 67.2395 10.9667 67.0956 11.5492L69.0372 12.0289C69.2214 11.2833 69.3125 10.5152 69.3125 9.72656H67.3125ZM67.0963 11.5465C66.9519 12.124 66.7434 12.6627 66.4719 13.1651L68.2313 14.1161C68.5847 13.4623 68.8528 12.7666 69.0366 12.0316L67.0963 11.5465ZM66.4669 13.1744C66.2027 13.6757 65.8777 14.1363 65.4904 14.5576L66.9627 15.9112C67.466 15.3637 67.891 14.7618 68.2362 14.1069L66.4669 13.1744ZM65.4899 14.5581C65.1147 14.9669 64.6893 15.3187 64.2115 15.6148L65.265 17.3149C65.8966 16.9235 66.4635 16.455 66.9632 15.9106L65.4899 14.5581ZM64.2061 15.6182C63.7387 15.912 63.2236 16.1452 62.6569 16.3159L63.2337 18.2309C63.9639 18.011 64.6441 17.7052 65.2705 17.3115L64.2061 15.6182ZM62.6675 16.3128C62.116 16.4723 61.5225 16.5547 60.8828 16.5547V18.5547C61.6962 18.5547 62.4777 18.4496 63.2231 18.2341L62.6675 16.3128ZM60.8828 16.5547C60.2658 16.5547 59.6851 16.476 59.1373 16.3223L58.5971 18.248C59.3305 18.4537 60.0936 18.5547 60.8828 18.5547V16.5547ZM59.1403 16.3232C58.5847 16.1654 58.0674 15.9472 57.586 15.6692L56.5859 17.4011C57.2139 17.7638 57.8841 18.0455 58.594 18.2471L59.1403 16.3232ZM57.5951 15.6745C57.1121 15.3888 56.6748 15.0497 56.2813 14.6562L54.8671 16.0704C55.3799 16.5831 55.9504 17.0253 56.5768 17.3958L57.5951 15.6745ZM56.2934 14.6685C55.9048 14.2662 55.5713 13.8238 55.2918 13.3398L53.5598 14.3399C53.9209 14.9653 54.3531 15.5385 54.855 16.0581L56.2934 14.6685ZM55.2999 13.3542C55.0266 12.8621 54.8097 12.3332 54.6503 11.7651L52.7247 12.3052C52.9247 13.0184 53.2 13.6925 53.5516 14.3255L55.2999 13.3542ZM54.6533 11.776C54.5052 11.2239 54.4297 10.6433 54.4297 10.0312H52.4297C52.4297 10.8098 52.526 11.5652 52.7217 12.2943L54.6533 11.776ZM54.4297 10.0312C54.4297 9.43292 54.5018 8.8513 54.6452 8.28435L52.7063 7.79378C52.5217 8.5237 52.4297 9.2702 52.4297 10.0312H54.4297ZM54.6459 8.2816C54.7912 7.70034 54.9975 7.15854 55.2636 6.65374L53.4942 5.72126C53.1509 6.37271 52.8884 7.06529 52.7056 7.79653L54.6459 8.2816ZM55.2586 6.66302C55.5334 6.15459 55.8624 5.6888 56.246 5.26404L54.7618 3.92346C54.2705 4.46745 53.8494 5.06416 53.4992 5.71198L55.2586 6.66302ZM56.246 5.26404C56.6265 4.84273 57.0492 4.48125 57.515 4.17745L56.4225 2.50223C55.8102 2.90156 55.2563 3.37602 54.7618 3.92346L56.246 5.26404ZM57.5095 4.18102C57.9786 3.87948 58.4855 3.64409 59.0332 3.47505L58.4434 1.56401C57.7254 1.78559 57.0527 2.09709 56.428 2.49867L57.5095 4.18102ZM59.0332 3.47505C59.5648 3.31099 60.1329 3.22656 60.7422 3.22656V1.22656C59.9453 1.22656 59.1774 1.33744 58.4434 1.56401L59.0332 3.47505ZM60.7422 3.22656C61.7709 3.22656 62.6802 3.38598 63.4822 3.68926L64.1896 1.81855C63.1323 1.41871 61.9791 1.22656 60.7422 1.22656V3.22656ZM63.4848 3.69024C64.2993 3.99568 64.9719 4.4252 65.5195 4.97273L66.9337 3.55852C66.1687 2.79355 65.2475 2.21525 64.1871 1.81758L63.4848 3.69024ZM65.5279 4.9811C66.082 5.52212 66.5174 6.18736 66.829 6.99337L68.6945 6.27226C68.2873 5.21889 67.6993 4.30601 66.9252 3.55015L65.5279 4.9811ZM66.8327 7.00285C67.1465 7.79075 67.3125 8.69393 67.3125 9.72656H69.3125C69.3125 8.47795 69.1113 7.31862 68.6907 6.26278L66.8327 7.00285ZM64.1094 10.0312C64.1094 9.59273 64.0428 9.16406 63.9081 8.74951L62.006 9.36768C62.0744 9.57812 62.1094 9.79789 62.1094 10.0312H64.1094ZM63.9168 8.7777C63.7911 8.34816 63.5965 7.95227 63.3259 7.60267L61.7444 8.82702C61.8488 8.96179 61.9355 9.1284 61.9973 9.33949L63.9168 8.7777ZM63.3352 7.61484C63.0574 7.24444 62.7084 6.94898 62.2988 6.7328L61.3653 8.50157C61.5182 8.58227 61.638 8.68524 61.7352 8.81484L63.3352 7.61484ZM62.3282 6.74894C61.8834 6.49477 61.3913 6.38281 60.8828 6.38281V8.38281C61.0931 8.38281 61.2338 8.42711 61.3359 8.48543L62.3282 6.74894ZM60.8828 6.38281C60.3936 6.38281 59.9197 6.47177 59.4809 6.67335L60.3159 8.49071C60.4553 8.42667 60.6376 8.38281 60.8828 8.38281V6.38281ZM59.4809 6.67335C59.0692 6.86253 58.708 7.12729 58.4051 7.46385L59.8917 8.80178C60.0107 8.66958 60.1495 8.56716 60.3159 8.49071L59.4809 6.67335ZM58.4039 7.46527C58.1053 7.79834 57.8849 8.18516 57.7358 8.61106L59.6235 9.27176C59.6932 9.07265 59.7854 8.92041 59.893 8.80036L58.4039 7.46527ZM57.7385 8.60354C57.5879 9.02318 57.5156 9.46232 57.5156 9.91406H59.5156C59.5156 9.67831 59.5528 9.46901 59.6209 9.27927L57.7385 8.60354ZM57.5156 9.91406C57.5156 10.3388 57.5765 10.7593 57.6947 11.1732L59.6178 10.6237C59.5485 10.3813 59.5156 10.1456 59.5156 9.91406H57.5156ZM57.6947 11.1732C57.8178 11.6039 58.0057 12.0038 58.2612 12.3657L59.8951 11.2124C59.7756 11.0431 59.6822 10.8492 59.6178 10.6237L57.6947 11.1732ZM58.2612 12.3657C58.5272 12.7427 58.86 13.054 59.255 13.2911L60.284 11.5761C60.1322 11.485 60.004 11.3667 59.8951 11.2124L58.2612 12.3657ZM59.2657 13.2974C59.7186 13.5616 60.221 13.6797 60.7422 13.6797V11.6797C60.529 11.6797 60.3829 11.6337 60.2734 11.5698L59.2657 13.2974ZM60.7422 13.6797C61.2393 13.6797 61.7205 13.5838 62.164 13.368L61.2891 11.5695C61.1545 11.635 60.9794 11.6797 60.7422 11.6797V13.6797ZM62.1738 13.3632C62.5868 13.1566 62.9473 12.8777 63.2428 12.5254L61.7104 11.2402C61.5996 11.3723 61.46 11.484 61.2794 11.5743L62.1738 13.3632ZM63.2527 12.5134C63.534 12.1672 63.7461 11.7768 63.8917 11.3505L61.999 10.7042C61.9258 10.9185 61.8254 11.0984 61.7004 11.2522L63.2527 12.5134ZM63.8917 11.3505C64.0371 10.9245 64.1094 10.4832 64.1094 10.0312H62.1094C62.1094 10.2668 62.0723 10.4896 61.999 10.7042L63.8917 11.3505ZM81.9883 11.6602L82.9403 11.9662L82.9411 11.9637L81.9883 11.6602ZM80.8047 14.0039L80.0003 13.4098L79.9992 13.4113L80.8047 14.0039ZM76.7266 16.9805L77.0796 17.9161L77.0873 17.9131L76.7266 16.9805ZM74.0781 17.6836L74.2358 18.6711L74.2425 18.67L74.0781 17.6836ZM70.1289 17.8828L70.0624 18.8806L70.0734 18.8813L70.0845 18.8818L70.1289 17.8828ZM69.0508 17.7891L68.051 17.7682L68.0318 18.6863L68.945 18.7835L69.0508 17.7891ZM69.3789 2.0625L69.0757 1.10957L68.394 1.32647L68.3791 2.04164L69.3789 2.0625ZM72.0273 1.48828L72.1472 2.4811L72.1545 2.48016L72.0273 1.48828ZM81.8359 5.58984L80.9107 5.96941L80.9136 5.97614L81.8359 5.58984ZM77.6055 9.44531L76.6056 9.4268L76.6055 9.43605V9.44531H77.6055ZM77.4648 8.22656L76.4925 8.45994L76.4947 8.46909L76.497 8.4782L77.4648 8.22656ZM76.9844 7.19531L76.1721 7.77852L76.1806 7.79038L76.1894 7.80199L76.9844 7.19531ZM76.1406 6.46875L75.6618 7.34665L75.6695 7.35088L75.6774 7.35498L76.1406 6.46875ZM74.9102 6.16406L74.9429 5.1646L73.9746 5.13285L73.9122 6.09968L74.9102 6.16406ZM74.4414 13.4297L73.4435 13.3653L73.3637 14.6025L74.5897 14.4186L74.4414 13.4297ZM75.7188 12.9727L76.2409 13.8255L76.2472 13.8217L76.2534 13.8177L75.7188 12.9727ZM76.7031 12.0938L75.9223 11.4691L75.9205 11.4712L76.7031 12.0938ZM77.3477 10.9336L76.4078 10.5918L76.4043 10.6017L77.3477 10.9336ZM77.6055 9.60938L78.6049 9.64384L78.6055 9.62661V9.60938H77.6055ZM81.4102 8.69531C81.4102 9.70413 81.2804 10.5878 81.0355 11.3566L82.9411 11.9637C83.2587 10.9669 83.4102 9.87399 83.4102 8.69531H81.4102ZM81.0363 11.3541C80.7857 12.1335 80.4389 12.816 80.0003 13.4098L81.6091 14.598C82.1861 13.8168 82.6283 12.9368 82.9403 11.9662L81.0363 11.3541ZM79.9992 13.4113C79.5632 14.0039 79.0427 14.5146 78.434 14.9455L79.5895 16.5779C80.3713 16.0245 81.0461 15.3633 81.6102 14.5965L79.9992 13.4113ZM78.434 14.9455C77.8087 15.3881 77.1203 15.756 76.3658 16.0478L77.0873 17.9131C77.989 17.5643 78.8241 17.1197 79.5895 16.5779L78.434 14.9455ZM76.3735 16.0449C75.6108 16.3327 74.7915 16.5509 73.9137 16.6972L74.2425 18.67C75.2397 18.5038 76.1861 18.2532 77.0796 17.9161L76.3735 16.0449ZM73.9205 16.6961C73.0452 16.8358 72.141 16.9062 71.207 16.9062V18.9062C72.2418 18.9062 73.2517 18.8282 74.2358 18.6711L73.9205 16.6961ZM71.207 16.9062C70.854 16.9062 70.5095 16.8987 70.1733 16.8838L70.0845 18.8818C70.4515 18.8981 70.8257 18.9062 71.207 18.9062V16.9062ZM70.1954 16.885C69.8576 16.8625 69.5113 16.8324 69.1566 16.7947L68.945 18.7835C69.3246 18.8238 69.6971 18.8562 70.0624 18.8806L70.1954 16.885ZM70.0506 17.8099L70.3787 2.08336L68.3791 2.04164L68.051 17.7682L70.0506 17.8099ZM69.6821 3.01543C70.481 2.76123 71.3024 2.58303 72.1472 2.48108L71.9075 0.495486C70.9398 0.612281 69.9955 0.816896 69.0757 1.10957L69.6821 3.01543ZM72.1545 2.48016C73.0275 2.36824 73.8913 2.3125 74.7461 2.3125V0.3125C73.8041 0.3125 72.8553 0.373944 71.9002 0.4964L72.1545 2.48016ZM74.7461 2.3125C75.7622 2.3125 76.6739 2.46506 77.4908 2.75779L78.1655 0.87502C77.1074 0.495874 75.9644 0.3125 74.7461 0.3125V2.3125ZM77.4908 2.75779C78.3099 3.05132 78.9991 3.46761 79.5725 4.00143L80.9353 2.53764C80.1493 1.80583 79.2213 1.25337 78.1655 0.87502L77.4908 2.75779ZM79.5725 4.00143C80.1397 4.52956 80.587 5.18031 80.9108 5.9694L82.7611 5.21029C82.3348 4.17125 81.7274 3.27512 80.9353 2.53764L79.5725 4.00143ZM80.9136 5.97614C81.2373 6.74921 81.4102 7.64986 81.4102 8.69531H83.4102C83.4102 7.42826 83.2002 6.25861 82.7583 5.20355L80.9136 5.97614ZM78.6053 9.46383C78.6147 8.95501 78.5582 8.45765 78.4327 7.97493L76.497 8.4782C76.5746 8.77672 76.6118 9.09186 76.6056 9.4268L78.6053 9.46383ZM78.4372 7.99319C78.3135 7.47752 78.0966 7.00443 77.7793 6.58864L76.1894 7.80199C76.3252 7.97995 76.4287 8.19435 76.4925 8.45994L78.4372 7.99319ZM77.7967 6.61211C77.4837 6.17614 77.0812 5.83202 76.6039 5.58252L75.6774 7.35498C75.8876 7.46486 76.0476 7.60511 76.1721 7.77852L77.7967 6.61211ZM76.6195 5.59085C76.1119 5.31399 75.5421 5.18425 74.9429 5.1646L74.8774 7.16353C75.2313 7.17513 75.4819 7.24851 75.6618 7.34665L76.6195 5.59085ZM73.9122 6.09968L73.4435 13.3653L75.4393 13.4941L75.9081 6.22844L73.9122 6.09968ZM74.5897 14.4186C75.1834 14.3296 75.7375 14.1337 76.2409 13.8255L75.1966 12.1198C74.9343 12.2804 74.6369 12.3892 74.2931 12.4408L74.5897 14.4186ZM76.2534 13.8177C76.7277 13.5176 77.1405 13.1503 77.4857 12.7163L75.9205 11.4712C75.7189 11.7247 75.4754 11.9433 75.1841 12.1276L76.2534 13.8177ZM77.484 12.7184C77.835 12.2797 78.105 11.7941 78.291 11.2655L76.4043 10.6017C76.2935 10.9168 76.1338 11.2047 75.9223 11.4691L77.484 12.7184ZM78.2875 11.2753C78.4793 10.7478 78.5856 10.2028 78.6049 9.64384L76.6061 9.57491C76.5941 9.92222 76.5285 10.26 76.4079 10.5919L78.2875 11.2753ZM78.6055 9.60938V9.44531H76.6055V9.60938H78.6055ZM89.4531 1.5L90.4499 1.5805L90.5419 0.441313L89.4006 0.501382L89.4531 1.5ZM88.1641 17.4609L88.2161 18.4596L89.0903 18.414L89.1608 17.5414L88.1641 17.4609ZM83.2188 17.7188H82.2188V18.7722L83.2708 18.7174L83.2188 17.7188ZM83.2188 1.82812L83.1662 0.829507L82.2188 0.879372V1.82812H83.2188ZM88.4564 1.4195L87.1673 17.3804L89.1608 17.5414L90.4499 1.5805L88.4564 1.4195ZM88.112 16.4623L83.1667 16.7201L83.2708 18.7174L88.2161 18.4596L88.112 16.4623ZM84.2188 17.7188V1.82812H82.2188V17.7188H84.2188ZM83.2713 2.82674L89.5057 2.49862L89.4006 0.501382L83.1662 0.829507L83.2713 2.82674ZM101.371 1.10156L102.369 1.16526L102.437 0.101562H101.371V1.10156ZM101.09 5.46094L101.142 6.45959L102.012 6.41442L102.086 5.54574L101.09 5.46094ZM96.1211 5.71875L96.0693 4.72009L95.1936 4.76553L95.1242 5.63963L96.1211 5.71875ZM96.0039 7.19531L95.007 7.1162L94.9214 8.19531H96.0039V7.19531ZM99.4961 7.19531L100.494 7.2661L100.57 6.19531H99.4961V7.19531ZM99.2383 10.8281L99.2716 11.8276L100.172 11.7976L100.236 10.8989L99.2383 10.8281ZM95.7227 10.9453L95.6893 9.94587L94.7867 9.97596L94.725 10.877L95.7227 10.9453ZM95.6055 12.6562L94.6078 12.5879L94.5346 13.6562H95.6055V12.6562ZM100.574 12.6562L101.573 12.7107L101.63 11.6562H100.574V12.6562ZM100.422 15.2227L99.4239 15.1586L99.4234 15.1672L100.422 15.2227ZM100.293 17.7656L100.316 18.7654L101.249 18.7437L101.292 17.8114L100.293 17.7656ZM90.1914 18L89.1917 17.9778L89.1684 19.024L90.2146 18.9997L90.1914 18ZM90.5664 1.10156V0.101562H89.5883L89.5667 1.07938L90.5664 1.10156ZM100.373 1.03786C100.326 1.77531 100.283 2.50502 100.244 3.22698L102.241 3.33552C102.28 2.61998 102.322 1.89656 102.369 1.16526L100.373 1.03786ZM100.244 3.22698C100.205 3.93531 100.155 4.65169 100.093 5.37614L102.086 5.54574C102.15 4.80144 102.201 4.06469 102.241 3.33552L100.244 3.22698ZM101.038 4.46228L96.0693 4.72009L96.1729 6.71741L101.142 6.45959L101.038 4.46228ZM95.1242 5.63963L95.007 7.1162L97.0008 7.27443L97.118 5.79787L95.1242 5.63963ZM96.0039 8.19531H99.4961V6.19531H96.0039V8.19531ZM98.4986 7.12452L98.2408 10.7573L100.236 10.8989L100.494 7.2661L98.4986 7.12452ZM99.205 9.82868L95.6893 9.94587L95.756 11.9448L99.2716 11.8276L99.205 9.82868ZM94.725 10.877L94.6078 12.5879L96.6031 12.7246L96.7203 11.0136L94.725 10.877ZM95.6055 13.6562H98.5117V11.6562H95.6055V13.6562ZM98.5117 13.6562H100.574V11.6562H98.5117V13.6562ZM99.5757 12.6018C99.529 13.458 99.4784 14.3102 99.4239 15.1586L101.42 15.2867C101.475 14.4319 101.526 13.5733 101.573 12.7107L99.5757 12.6018ZM99.4234 15.1672C99.3764 16.0142 99.3332 16.8651 99.294 17.7198L101.292 17.8114C101.331 16.9631 101.374 16.1186 101.42 15.2781L99.4234 15.1672ZM100.27 16.7659L90.1682 17.0003L90.2146 18.9997L100.316 18.7654L100.27 16.7659ZM91.1912 18.0222L91.5662 1.12375L89.5667 1.07938L89.1917 17.9778L91.1912 18.0222ZM90.5664 2.10156H101.371V0.101562H90.5664V2.10156ZM112.504 5.13281L113.307 5.72823L113.521 5.44053L113.503 5.08287L112.504 5.13281ZM107.137 12.375L106.333 11.7796L105.151 13.375H107.137V12.375ZM112.316 12.375L113.316 12.3891L113.331 11.375H112.316V12.375ZM112.246 17.3438L112.286 18.3429L113.233 18.3048L113.246 17.3579L112.246 17.3438ZM101.793 17.7656L100.798 17.8671L100.894 18.8027L101.833 18.7648L101.793 17.7656ZM101.324 13.1719L100.531 12.563L100.289 12.8781L100.329 13.2734L101.324 13.1719ZM107.441 5.20312L108.235 5.81205L109.596 4.03799L107.366 4.20595L107.441 5.20312ZM101.84 5.625L100.84 5.63495L100.851 6.70234L101.915 6.62218L101.84 5.625ZM101.793 0.914062V-0.0859375H100.783L100.793 0.924012L101.793 0.914062ZM112.293 0.914062L113.292 0.864125L113.244 -0.0859375H112.293V0.914062ZM111.7 4.5374L106.333 11.7796L107.94 12.9704L113.307 5.72823L111.7 4.5374ZM107.137 13.375H112.316V11.375H107.137V13.375ZM111.317 12.3609L111.246 17.3296L113.246 17.3579L113.316 12.3891L111.317 12.3609ZM112.206 16.3446L101.753 16.7664L101.833 18.7648L112.286 18.3429L112.206 16.3446ZM102.788 17.6641L102.319 13.0704L100.329 13.2734L100.798 17.8671L102.788 17.6641ZM102.117 13.7808L108.235 5.81205L106.648 4.5942L100.531 12.563L102.117 13.7808ZM107.366 4.20595L101.765 4.62782L101.915 6.62218L107.517 6.2003L107.366 4.20595ZM102.84 5.61505L102.793 0.904113L100.793 0.924012L100.84 5.63495L102.84 5.61505ZM101.793 1.91406H112.293V-0.0859375H101.793V1.91406ZM111.294 0.964L111.505 5.18275L113.503 5.08287L113.292 0.864125L111.294 0.964Z" fill="black" mask="url(#path-1-outside-1_1_37)"/>
</svg>
